<svg xmlns="http://www.w3.org/2000/svg" viewBox="0 0 12 27" aria-label="Facebook"><path d="M8.26953125,8.72265625 L12.4042969,8.72265625 L11.9511719,13.3671875 L8.26953125,13.3671875 L8.26953125,26.6777344 L2.77539062,26.6777344 L2.77539062,13.3671875 L0,13.3671875 L0,8.72265625 L2.77539062,8.72265625 L2.77539062,6.00390625 C2.77539062,4.04035477 3.22851109,2.54883322 4.13476562,1.52929688 C5.07878076,0.509760527 6.60806234,0 8.72265625,0 L12.4042969,0 L12.4042969,4.58789062 L10.0820312,4.58789062 C9.66666459,4.58789062 9.32682424,4.62565066 9.0625,4.70117188 C8.83593637,4.77669309 8.66601619,4.90885322 8.55273438,5.09765625 C8.43945256,5.28645928 8.36393248,5.47525947 8.32617188,5.6640625 C8.28841127,5.85286553 8.26953125,6.1171858 8.26953125,6.45703125 L8.26953125,8.72265625 Z"></path></svg>
