<svg xmlns="http://www.w3.org/2000/svg" width="171.5" height="35.1" viewBox="0 0 171.5 35.1" role="img" aria-label="Golf Digest Home Page">
    <title>Golf Digest Logo</title>
    <path d="M68.8 6.5c1.6 0 2.8-1.3 2.8-2.8S70.3.9 68.8.9C67.2.9 66 2.2 66 3.7s1.2 2.8 2.8 2.8M12.7 27.1v-.5C9.9 26 9 21.5 9 14.6c0-7.3 2.2-11.2 5.4-12v-.5C5.7 2.6 0 7.2 0 14.6c0 7.1 5.1 12.1 12.7 12.5m1 0c4.6-.1 7.9-.9 10-1.8v-9.2h-7.9V26c-.5.2-1.4.5-2 .6v.5h-.1zM23.1 8V2.9c-1.7-.5-4.4-.8-7.2-.8v.5c2.9 1.4 5 3 7.2 5.4m11.2 19v-.4c-.3-.1-.7-.4-1-.7-.9-1.1-1-3.2-1-8.4 0-5.1.2-7.3 1-8.3.2-.3.6-.6 1-.7v-.4c-5.4.4-9.9 3.9-9.9 9.4.1 5.6 4.5 9.1 9.9 9.5m1 0c5.4-.4 9.8-3.9 9.8-9.5 0-5.5-4.4-9-9.8-9.4v.4c.3.1.7.3 1 .7.8 1.1 1 3.2 1 8.3 0 5.1-.2 7.3-1 8.4-.2.3-.7.6-1 .7v.4zm10.7-.3h7.5V.2L46 .9v25.8z"></path>
    <path d="M64.1 26.7V11h3.6V8.5h-3.6V4c0-2.3 1.7-3.2 3.1-3.4V.2c-4.9.3-10.7 1.4-10.7 6.6v1.7h-2.3V11h2.3v15.7h7.6z"></path>
    <path d="M101 7.6c2.1 0 3.8-1.7 3.8-3.8S103.1 0 101 0s-3.8 1.7-3.8 3.8 1.7 3.8 3.8 3.8" fill="#ED1C24"></path>
    <path d="M114.7 35.1v-.3c2.9-.3 6-1.4 6-3.8 0-1.4-1-1.9-2.5-1.9h-7.6c-2.9 0-5-1.4-5-4.6 0-2.6 2.3-4 4-4.8l.2.2c-.3.2-.6.5-.6 1.1 0 .7.5 1 1.2 1h8.3c4.2 0 6.6 1.6 6.6 5.8 0 3.9-4.5 6.9-10.6 7.3m-1.1 0c-5.8 0-8.6-1-8.6-3 0-1.5 1.7-2.3 4.9-2.5l.1.2c-.4.3-1 1-1 2.3 0 1.9 1.9 2.5 4.5 2.7v.3m1.3-15v-.3c.7-.2 1.2-1.9 1.2-5.6 0-3.8-.6-5.6-1.2-5.7v-.4c3.4.2 7.9 1.9 7.9 6s-4.5 5.9-7.9 6m-.9 0c-3.4-.2-8-1.9-8-5.9s4.6-5.9 8-6v.3c-.7.2-1.3 1.9-1.3 5.7 0 3.8.7 5.5 1.3 5.6v.3m9.9-9.4c-1.3 0-2.4-1.1-2.4-2.5s1.1-2.5 2.4-2.5c1.4 0 2.5 1.1 2.5 2.5-.1 1.5-1.2 2.5-2.5 2.5m-41.3 16v-.5c3.3-.3 5-3.1 5-11.6 0-8.9-1.6-11.3-5.1-11.6v-.6c8.5.1 14 3.5 14 12.2.1 7.9-5.2 12-13.9 12.1m-1.4 0h-8.7V2.4h8.7v24.3m23.7 0h-7.5V9.1l7.5-.7v18.3m60 .3c-3.5 0-6.1-1.6-6.1-5.9v-10h-2.3V8.5h2.4v-4l7.7-2.7-.2 6.7h4.8v2.6h-4.8v9.3c0 2.2.9 3 2.9 3 .8 0 2-.3 2.4-.5v.6c-1.1 1.9-3.4 3.5-6.8 3.5m-16 0v-.4c1.2-.2 2.2-.8 2.2-2.2 0-1.2-.7-1.8-2.6-2.7l-2.4-1.1c-2.2-1-4.2-2.7-4.2-5.9 0-3.3 3.2-6.3 7.7-6.6v.4c-1 .1-2.1.6-2.1 2 0 1.3.8 1.9 2.1 2.5l3.3 1.5c2 .9 3.7 2.8 3.7 5.4.1 4.4-2.2 6.9-7.7 7.1m-.9 0c-1.9 0-4.3-.3-5.7-.7v-4.7c1.9 2 4 4.2 5.7 5v.4m7.7-14c-1.6-2.2-3.2-3.7-5.1-4.4v-.5c1.8 0 3.9.4 5.1.8V13m-22.7 14c-6.5 0-9.3-4.7-9.3-9.5 0-5.1 4-9 9.2-9.4v.4c-1.1.3-1.6 1.4-1.6 6.5 0 4.2 1.7 6.5 5.2 6.5 2 0 3.8-.5 4.9-1.4v.7c-.7 2.2-2.8 6.2-8.4 6.2m8.2-11.2h-9v-.5l2.5-.4c0-4-.5-6.2-1.2-6.4v-.4c5.6.3 7.7 4.3 7.7 7.7" fill="#A8A9A3"></path>
</svg>
