<svg xmlns="http://www.w3.org/2000/svg" aria-label="Golf Digest Plus" role="img" viewBox="0 0 3725 710">
    <title>Golf Digest Plus</title>
    <path d="M2211.19 404.05v-5.852c-12.43-2.915-24.86-35.093-24.86-106.758 0-72.372 12.43-105.256 24.86-108.215v-5.83c-65.05 2.208-151.27 36.572-151.27 114.045s86.22 109.695 151.27 112.61Zm90.61 35.822h-157.85c-14.61 0-23.39-5.853-23.39-18.287 0-10.225 5.85-16.055 11.69-20.45l-3.64-4.417c-31.43 14.62-75.27 41.674-75.27 90.658 0 59.231 39.45 86.285 94.28 86.285h143.23c29.93 0 48.21 8.834 48.21 35.093 0 44.589-59.93 65.061-113.99 71.643v6.625c116.17-7.31 200.87-62.875 200.87-138.184.09-78.975-45.23-108.966-124.14-108.966Zm95.73-213.494a46.575 46.575 0 0 0 33.11-13.653 46.693 46.693 0 0 0 10.14-15.196 46.7 46.7 0 0 0 3.52-17.926 47.106 47.106 0 0 0-46.77-46.798 46.45 46.45 0 0 0-32.69 13.874 46.432 46.432 0 0 0-13.35 32.924 46.03 46.03 0 0 0 3.28 17.854 45.997 45.997 0 0 0 9.94 15.193 45.88 45.88 0 0 0 15.03 10.167 45.92 45.92 0 0 0 17.79 3.561Z" fill="#8A8A81"></path>
    <path d="M2119.12 629.977c0-24.138 11.04-37.279 18.28-43.86l-1.48-3.666c-61.39 5.123-93.52 19.744-93.52 48.255 0 38.03 53.32 55.565 162.21 56.294v-6.625c-49.71-2.209-85.49-13.848-85.49-50.398Zm257.95-338.537c0-77.473-85.51-111.108-149.81-114.045v5.852c12.42 2.937 23.4 35.821 23.4 108.215 0 71.665-11.04 103.799-23.4 106.758v5.852c64.3-2.937 149.81-35.092 149.81-112.632Z" fill="#8A8A81"></path>
    <path d="M352.871 514.452a134.759 134.759 0 0 1-38.717 11.042v10.226c87.675-2.209 149.06-16.807 188.527-34.364V327.284h-149.81v187.168ZM490.96 175.208V77.24c-31.41-8.834-82.553-14.62-136.633-15.349v10.226c55.559 26.325 95.003 56.293 136.633 103.091ZM224.25 298.772c0-138.184 41.652-211.307 101.537-226.655V62.002C162.136 72.845 54 159.175 54 298.772c0 135.976 95.709 229.682 240.399 236.881v-10.225c-52.6-9.497-70.149-94.324-70.149-226.656Zm498.412-121.377v8.038a37.525 37.525 0 0 1 18.277 12.434c16.069 20.473 19.711 61.418 19.711 157.928 0 97.173-3.642 138.184-19.711 158.657-4.415 5.124-12.427 11.042-18.277 12.434v8.039c102.288-7.31 186.342-74.581 186.342-179.13 0-104.549-84.143-171.068-186.342-178.4ZM517.316 355.729c0 104.549 84.761 171.819 187.07 179.129v-7.972c-6.622-1.48-13.884-7.31-18.277-12.434-16.797-20.473-19.711-61.418-19.711-158.657 0-96.51 2.914-137.455 19.711-157.928a34.53 34.53 0 0 1 18.277-12.434v-8.038c-102.309 7.332-187.07 73.851-187.07 178.334Zm406.742 173.343h143.232V26.048L924.058 39.21v489.862Zm344.472-430.63c0-43.86 32.87-60.69 59.2-64.355v-8.04c-92.71 5.124-202.43 25.597-202.43 125.022v32.178h-43.15v48.984h43.13v296.841h143.25V232.231h67.94v-48.984h-67.94V98.441Z" fill="#000"></path>
    <path d="M1355.88 37.708a53.73 53.73 0 0 0-29.88 9.056 53.82 53.82 0 0 0-19.82 24.14 53.87 53.87 0 0 0-3.07 31.085 53.93 53.93 0 0 0 14.71 27.551 53.763 53.763 0 0 0 58.61 11.672 53.797 53.797 0 0 0 33.19-49.705 53.808 53.808 0 0 0-15.74-38.034 53.754 53.754 0 0 0-38-15.765Z" fill="#000"></path>
    <path d="M1590.18 68.45h-165.15v460.622h165.15V68.45Zm25.56 0v11.043c65.05 5.852 95.73 51.192 95.73 219.346 0 160.843-32.13 214.95-94.91 220.074v10.225c164.42-2.208 265.25-79.682 265.25-230.299-.06-164.576-104.56-228.18-266.07-230.389Zm280.13 460.622h142.51V181.789l-142.51 13.163v334.12Z" fill="#8A8A81"></path>
    <path d="M1967.1 23a71.71 71.71 0 0 0-66.2 44.335 71.8 71.8 0 0 0-4.06 41.449 71.715 71.715 0 0 0 56.35 56.346 71.664 71.664 0 0 0 41.42-4.085 71.738 71.738 0 0 0 32.18-26.418 71.835 71.835 0 0 0 12.1-39.852c0-9.43-1.86-18.768-5.46-27.48A71.777 71.777 0 0 0 2017.86 44a71.635 71.635 0 0 0-23.29-15.556A71.667 71.667 0 0 0 1967.1 23Z" fill="#ED3E49"></path>
    <path d="M3257.32 466.925c-37.28 0-54.8-15.348-54.8-57.773V232.96h90.5v-49.713h-90.5l3.33-126.48-145.84 50.442v76.038h-44.56v49.713h43.86v189.376c0 81.869 47.47 112.633 114.78 112.633 65.05 0 108.15-30.72 127.87-66.52v-11.042c-7.27 4.329-29.19 9.518-44.64 9.518ZM2950.2 300.959l-62.12-29.152c-25.58-11.705-40.19-23.388-40.19-48.255 0-27.054 21.19-35.844 39.47-38.03v-8.127c-85.52 5.123-146.17 61.417-146.17 124.292 0 59.961 38.01 92.138 78.93 111.131l44.57 20.472c37.28 17.536 49.71 29.97 49.71 51.922 0 26.325-19.01 38.008-42.39 41.674v8.039c103.75-5.124 147.61-51.9 147.61-130.875 0-49.712-31.43-85.556-69.42-103.091Zm-203.16 131.603v88.471c26.31 7.31 73.08 13.251 108.16 13.891v-8.038c-32.17-15.349-72.34-55.588-108.16-94.324Zm252.84-162.964v-77.517c-21.91-6.626-62.09-14.62-96.45-14.62v8.039c35.07 13.096 66.5 42.358 96.45 84.098Zm-462.52 39.422c0-97.99 9.49-118.463 29.96-123.675v-7.95c-99.33 8.038-174.65 81.161-174.65 177.671 0 91.387 54.06 179.859 176.83 179.859 106.68 0 146.88-75.309 158.58-116.255v-12.411c-20.47 15.327-54.81 25.574-92.71 25.574-65.87 0-98.01-43.86-98.01-122.813Z" fill="#8A8A81"></path>
    <path d="m2603.96 306.06-48.23 7.332v9.497H2726c0-64.333-39.47-140.371-144.69-145.494v8.038c13.82 3.666 22.65 45.34 22.65 120.627Z" fill="#8A8A81"></path>
    <path d="M3532 184h50v230h-50z" fill="#ED3E49"></path>
    <path d="M3440 321v-50h230v50z" fill="#ED3E49"></path>
</svg>
