<svg xmlns="http://www.w3.org/2000/svg" viewBox="0 0 25 21" aria-label="Twitter"><path d="M25.4882812,2.43554688 C24.7708297,3.49284383 23.9023488,4.39908477 22.8828125,5.15429688 L22.8828125,5.83398438 C22.8828125,7.23112678 22.6751323,8.62824822 22.2597656,10.0253906 C21.844399,11.422533 21.2213583,12.7630144 20.390625,14.046875 C19.5598917,15.3307356 18.5592506,16.4635368 17.3886719,17.4453125 C16.2558537,18.4270882 14.8776123,19.2200491 13.2539062,19.8242188 C11.5924396,20.3906278 9.83659779,20.6738281 7.98632813,20.6738281 C5.0787615,20.6738281 2.41667875,19.8997473 0,18.3515625 C0.377606055,18.3893231 0.792966484,18.4082031 1.24609375,18.4082031 C3.6627725,18.4082031 5.81509473,17.6718824 7.703125,16.1992188 C6.57030684,16.1614581 5.5696658,15.8027378 4.70117188,15.1230469 C3.79491734,14.443356 3.1718767,13.5937551 2.83203125,12.5742188 C3.2096373,12.6119794 3.54947766,12.6308594 3.8515625,12.6308594 C4.30468977,12.6308594 4.75781023,12.5742193 5.2109375,12.4609375 C4.00259812,12.1966133 3.00195709,11.5924526 2.20898438,10.6484375 C1.41601166,9.70442236 1.01953125,8.59050121 1.01953125,7.30664062 L1.01953125,7.25 C1.73698275,7.66536666 2.52994357,7.89192689 3.3984375,7.9296875 C2.680986,7.43879963 2.11458541,6.81575898 1.69921875,6.06054688 C1.24609148,5.30533477 1.01953125,4.47461391 1.01953125,3.56835938 C1.01953125,2.62434424 1.2649715,1.75586334 1.75585938,0.962890625 C3.07748057,2.54883605 4.66340221,3.83267738 6.51367187,4.81445312 C8.40170215,5.75846826 10.4029842,6.28710881 12.5175781,6.40039062 C12.4420569,5.98502396 12.4042969,5.58854355 12.4042969,5.2109375 C12.4042969,3.77603449 12.9140574,2.54883322 13.9335938,1.52929688 C14.9531301,0.509760527 16.1803314,0 17.6152344,0 C19.1256586,0 20.4094999,0.547520566 21.4667969,1.64257813 C22.6373756,1.41601449 23.7324168,1.00065406 24.7519531,0.396484375 C24.3743471,1.60482375 23.6191463,2.54882473 22.4863281,3.22851562 C23.4681039,3.15299441 24.4687449,2.88867414 25.4882812,2.43554688 Z"></path></svg>
